<?xml version="1.0" encoding="UTF-8" standalone="no"?>
<svg width="124px" height="80px" viewBox="0 0 124 80" version="1.1" xmlns="http://www.w3.org/2000/svg" xmlns:xlink="http://www.w3.org/1999/xlink">
    <!-- Generator: Sketch 3.6.1 (26313) - http://www.bohemiancoding.com/sketch -->
    <title>Nude</title>
    <desc>Created with Sketch.</desc>
    <defs></defs>
    <g id="Page-1" stroke="none" stroke-width="1" fill="none" fill-rule="evenodd">
        <path d="M25.8841463,72.9858112 L26.1845426,76.6252654 C26.1845426,78.5925477 25.3167398,79.5761742 23.5811081,79.5761742 C22.379517,79.5761742 21.5617797,78.3138536 21.1278718,75.7891745 C20.8942291,74.6088051 20.760721,73.9530542 20.7273434,73.821902 C14.0518371,53.132649 9.84633125,38.0175895 8.11069961,28.47627 C8.04394455,28.1811776 7.993879,27.722152 7.96050147,27.0991792 C7.89374641,25.7548696 7.57666461,24.8040307 7.00924658,24.246634 L7.20951076,23.7548159 C6.77560285,21.2629249 6.4501768,19.5333817 6.23322285,18.5661346 C6.01626889,17.5988874 5.77428542,16.5087015 5.50726517,15.295544 C5.03997973,13.1643214 4.43919317,11.2462499 3.70488748,9.54127181 C3.50462229,10.9183695 3.40449119,11.967571 3.40449119,12.6889079 C3.40449119,13.4102447 3.47124526,13.9676331 3.60475538,14.3610895 C3.13746994,15.9349154 2.90383072,18.2628313 2.90383072,21.344907 L2.90383072,48.9359044 C2.90383072,52.1491323 3.13746994,56.9361142 3.60475538,63.2969939 C4.07204082,69.6578736 4.30568004,74.4448556 4.30568004,77.6580835 L3.60475538,78.4449925 L1.25165117,78.4449925 L0.951254892,77.6580835 C1.08476502,77.1334748 1.15151908,75.7891854 1.15151908,73.6251747 L0,38.5585418 L0,25.3778157 L0.750990705,6.34445394 L0.650858611,4.22963596 C0.650858611,3.37714693 0.876153569,2.81156173 1.32675024,2.53286339 C1.77734692,2.25416506 2.36144496,2.11481798 3.07906189,2.11481798 C3.79667882,2.11481798 4.42249815,2.31974015 4.95653865,2.72959065 C5.49057915,3.13944114 5.7575954,3.78699521 5.7575954,4.67227228 C5.7575954,5.55754935 5.90779204,6.52478201 6.20818982,7.57399927 C6.50858761,8.62321654 6.94248901,9.79537137 7.50990705,11.0904989 C8.07732508,12.3856265 8.51957074,13.5659782 8.83665729,14.6315895 C9.15374384,15.6972008 9.44579286,17.4021533 9.71281311,19.7464981 C9.97983336,22.0908429 10.2969152,24.1646553 10.664068,25.9679975 C11.0312209,27.7713397 11.6320074,30.1976182 12.4664457,33.2469059 C13.300884,36.2961936 14.2604736,39.673311 15.3452434,43.3783595 C16.4300132,47.0834079 17.1225866,49.5178834 17.4229843,50.6818588 C17.7233821,51.8458342 18.1239065,53.3294707 18.6245695,55.1328129 C19.6926505,58.8706494 20.26006,61.510047 20.3268151,63.0510849 C20.7941005,63.7396337 21.1529036,65.0675294 21.4032351,67.0348117 C21.6535666,69.0020941 22.2126318,70.3463836 23.0804477,71.0677204 C23.5143556,70.1168673 23.7313063,68.5102775 23.7313063,66.2479027 L24.1318346,31.1812697 L23.8314384,15.5906349 L24.1318346,11.7544534 C24.1318346,11.0331165 24.0317035,10.6068784 23.8314384,10.4757263 L24.1318346,9.63963544 C24.1318346,5.50834245 23.9983265,2.75418844 23.7313063,1.37709078 C23.9983265,0.459025669 24.8494408,0 26.2846747,0 C27.3861332,0 27.9368542,1.09838285 27.9368542,3.2951815 C27.5029463,4.14767053 27.2859956,5.26244715 27.2859956,6.63954482 L27.3861277,10.0330899 C27.3861277,11.4757637 27.2526196,12.4921777 26.9855993,13.0823624 L26.685203,44.9029957 C26.685203,45.5259684 26.7519571,46.427626 26.8854672,47.6079954 L26.685203,48.0506318 L26.685203,60.7395396 L26.8854672,64.5265393 C26.8854672,68.5266801 26.5516969,71.2808341 25.8841463,72.7890839 L25.8841463,72.9858112 Z M61.0409059,33.1977241 L61.141038,35.2141784 C61.0075279,36.9191565 60.915741,39.2142848 60.8656747,42.0996323 C60.8156084,44.9849798 60.7655429,47.72274 60.7154766,50.3129952 C60.6654103,52.9032503 60.5736235,55.7065856 60.4401133,58.7230853 C60.3066032,61.7395849 60.039587,64.4445576 59.6390566,66.8380845 C58.7044857,72.5432034 57.1858308,76.3465589 55.0830463,78.2482652 C52.8133742,80.3466997 50.1599002,80.5598188 47.1225448,78.8876288 C45.8208211,78.1662919 44.7277234,77.2646344 43.8432188,76.182629 C42.9587142,75.1006237 42.2494523,71.6169468 41.7154118,65.7314937 C41.1813713,59.8460406 40.8642895,53.6409972 40.7641569,47.1161773 C40.4637591,27.5089296 40.1466773,16.3283758 39.812902,13.5741805 L40.4637606,12.1479079 C42.0325046,12.3446362 42.8168648,14.1971326 42.8168648,17.7054528 L43.1172611,44.4111776 L44.2187141,65.7560846 C44.2187141,73.3956978 46.7887455,77.2154471 51.9288854,77.2154471 C55.0997509,77.2154471 57.1023727,70.1825181 57.936811,56.1164492 C58.0035661,55.165596 58.162107,50.6245206 58.4124384,42.4930868 C58.6627699,34.361653 58.7879338,24.5581762 58.7879338,13.0823624 L58.5876696,11.2626353 C58.5876696,10.5085104 59.0799808,10.1314536 60.064618,10.1314536 C61.0492552,10.1314536 61.6333532,10.3527695 61.8169296,10.7954081 C62.0005061,11.2380466 62.0922929,13.2216932 62.0922929,16.7464075 C62.0922929,20.2711217 61.8753422,22.8695349 61.4414343,24.5417249 C61.5081893,24.6728771 61.5415664,24.8859961 61.5415664,25.1810885 C61.5415664,25.1810885 61.3746812,27.8532736 61.0409059,33.1977241 L61.0409059,33.1977241 Z M96.0474674,43.1816322 C96.0474674,45.8374634 96.2143525,47.460447 96.5481279,48.0506318 C96.1142199,50.2474304 95.7220398,53.2147035 95.3715758,56.95254 C95.0211117,60.6903765 94.6038988,63.5428932 94.1199246,65.5101755 C93.6359504,67.4774579 93.0268196,69.1660166 92.2925139,70.5759023 C90.4901272,73.9202824 87.5028829,76.7072239 83.3306915,78.9368106 L76.2213128,78.9368106 C75.6205172,78.9368106 75.3201239,78.035153 75.3201239,76.2318109 C75.0531037,71.0185126 74.9195956,65.1823291 74.9195956,58.7230853 L75.1198598,34.9190876 C75.1198598,27.9352351 74.9863516,21.6236322 74.7193314,15.9840894 C74.1519133,15.5250568 73.8682086,14.9512747 73.8682086,14.2627259 C73.8682086,13.5741771 74.1519133,12.9840012 74.7193314,12.4921806 C75.2867494,12.00036 75.8040934,11.7544534 76.2713788,11.7544534 C76.7386643,11.7544534 77.2643525,12.0249507 77.8484593,12.5659533 C78.4325661,13.106956 78.8748118,13.4512252 79.1752096,13.5987714 C79.4756073,13.7463176 80.1932135,13.9102553 81.3280496,14.0905896 C82.4628856,14.2709238 83.4057868,14.541421 84.1567812,14.9020895 C84.9077757,15.2627579 86.1343816,16.2381875 87.8366357,17.8284074 C89.5388898,19.4186273 90.6903974,20.4268444 91.2911929,20.8530889 L91.1910608,21.0498162 C91.2578159,21.4760607 91.7668156,22.3367338 92.7180753,23.6318614 C93.6693349,24.9269889 94.2617772,25.8696309 94.4954199,26.4598156 C95.5968785,29.3779512 96.1475995,33.378032 96.1475995,38.4601781 L96.0474674,43.1816322 Z M93.0435046,49.3293589 L92.9433725,45.6899047 L92.442712,35.5584511 C92.3092019,31.7550385 91.1243173,27.7221702 88.8880227,23.459725 C87.8533192,21.4268666 86.4765167,19.7383079 84.7575738,18.3939982 C83.0386309,17.0496886 81.19455,16.3775439 79.2252756,16.3775439 C78.4575924,16.3775439 78.0737565,23.0907943 78.0737565,36.5174965 C78.0737565,49.9441987 78.4575924,61.9690318 79.2252756,72.5923567 L79.1251435,74.5104474 L79.5256719,74.7071746 L79.8260682,76.0350836 L82.9802291,76.0350836 C83.3807595,75.4776869 83.8897592,74.9694799 84.5072436,74.5104474 C85.1247279,74.0514148 85.550285,73.7235394 85.7839278,73.5268111 C90.6236698,69.2315779 93.0435046,61.1658412 93.0435046,49.3293589 L93.0435046,49.3293589 Z M108.87477,77.6580835 L108.974902,75.1006292 L108.62444,74.7071746 C109.125103,73.362865 109.375431,71.985788 109.375431,70.5759023 L108.87477,57.2968127 L109.575695,26.9516338 L109.175166,14.9020895 C109.175166,13.0003832 110.159789,12.0495443 112.129063,12.0495443 C112.896746,12.0495443 113.447467,12.2626634 113.781243,12.6889079 C114.014885,12.754484 114.999508,12.8856341 116.735139,13.0823624 C120.940708,13.5413949 123.093527,14.3774774 123.193659,15.5906349 C123.193659,16.1152435 122.542807,16.7546007 121.241084,17.5087256 C117.469423,16.2955681 114.699129,15.6562109 112.93012,15.5906349 L112.429459,16.1808166 C112.496214,17.1316698 112.529591,18.5743219 112.529591,20.5088162 L112.129063,36.1486329 C112.129063,38.0175511 112.61303,38.9519963 113.580978,38.9519963 L117.035536,38.755269 C119.638983,38.755269 120.974064,39.3618386 121.040819,40.5749961 C121.040819,41.2635449 120.86559,41.8701146 120.515126,42.3947232 C120.164662,42.9193318 119.538843,43.1816322 118.637649,43.1816322 C117.736456,43.1816322 117.068915,42.9193318 116.635007,42.3947232 L113.280582,41.9029051 L112.829988,41.9029051 L112.329327,42.3947232 L112.329327,42.6898141 C112.462837,44.4275802 112.529591,47.0833715 112.529591,50.6572679 L112.329327,64.9691756 C112.329327,71.6579357 112.796606,75.3629286 113.731177,76.0842654 C114.331972,76.576086 115.433414,76.8219926 117.035536,76.8219926 L120.840555,76.6252654 C122.843207,76.6252654 123.844518,77.0678973 123.844518,77.9531743 C123.844518,79.1663318 122.35924,79.7729014 119.38864,79.7729014 L110.927478,79.7729014 C109.659132,79.7729014 108.974903,79.0679692 108.87477,77.6580835 L108.87477,77.6580835 Z" id="Nude" fill="#3E3E3E"></path>
    </g>
</svg>